<?xml version="1.0" encoding="utf-8"?>
<!-- Generator: Adobe Illustrator 20.1.0, SVG Export Plug-In . SVG Version: 6.00 Build 0)  -->
<svg version="1.1" id="Layer_1" xmlns="http://www.w3.org/2000/svg" xmlns:xlink="http://www.w3.org/1999/xlink" x="0px" y="0px"
	 viewBox="0 0 440.5 141.7" style="enable-background:new 0 0 440.5 141.7;" xml:space="preserve">
<style type="text/css">
	.st0{fill:#006941;}
	.st1{fill:#D40032;}
</style>
<g>
	<path class="st0" d="M414.1,61.7c4.5,2.5,13,7.5,9.6,20.4c-2.4,9.1-11.1,21.6-30.8,21.6c-19.1,0-23.2-10.5-21.5-16.7
		c1.3-4.7,5.5-8.8,10.7-8.8c2,0,4.8,0.7,6.7,4.6c0.2,0.7,1.6,3.6,1.8,4.2c0.6,1.3,2,4.3,5.6,4.3c3,0,6.7-2.4,7.8-6.5
		c1.4-5.3-1.8-7.1-7.6-10.4l-4.9-2.8c-4.2-2.2-12.6-7-9.2-19.6c1.2-4.6,7.4-20.3,30.1-20.3c16.9,0,20.5,8.7,18.9,14.8
		c-1.1,4-4.6,7.9-9.8,7.9c-5,0-6-3.2-7-6.3c-0.8-2.5-1.9-5.8-5.7-5.8c-4,0-6.7,3.3-7.5,6.3c-1.5,5.7,3,7.9,6.8,9.8L414.1,61.7"/>
	<path class="st1" d="M371.6,26.4c-6.1,0-10.1-3.2-8.5-9.1c1.4-5.1,6.1-9.4,13.3-9.4c7.1,0,9,4.3,7.8,9.2
		C382.6,23.5,376.9,26.4,371.6,26.4"/>
	<path class="st0" d="M317.7,99c-0.6,2.4-1.6,2.9-3.7,2.9h-15.2c-2.4,0-2.9-0.5-2.2-3l14.7-54.7c1.2-4.3,2.4-5.9,5.8-7.5
		c8.6-4,21.1-4.9,27.3-4.9c3.6,0,17.4,0,14.2,12.1c-1.3,4.7-5.2,8.6-10.1,8.6c-4.6,0-5.1-3-5.7-6.3c-0.5-2.2-1.2-4.1-4.3-4.1
		c-5.4,0-6.5,3.6-7.3,6.7L317.7,99"/>
	<path class="st0" d="M223.9,129.8c-0.7,2.8,0.8,2.9,2.7,2.9H241c2.5,0,3.2-1.2,3.7-3l7.6-28.3c2.8,1.7,6.1,2.4,9.7,2.4
		c20.7,0,34.9-20.8,39.7-38.9c3.1-11.5,1.5-20.8-2.6-25.8c-5.6-7-16.4-7.2-20.9-7.2c-13.9,0-25.3,4.3-28.5,7.4
		c-1.9,1.7-2.5,3.8-3.5,7.6L223.9,129.8 M264.9,51c1-3.3,2.1-7.2,7.5-7.2c4.5,0,6.7,3.4,7.6,7.1c1.1,5.1,0.1,11.1-1.5,16.9
		c-1.8,6.8-7.4,22.5-17.8,22.5c-0.7,0-3.3-0.1-5.9-1.7L264.9,51z"/>
	<path class="st0" d="M40,61.4l-6.7,24.9h27.2c2.1,0,3.3,0.4,2.5,3.3l-2.4,9c-0.7,2.6-1.7,3.3-4.4,3.3H10c-2.2,0-3.6-0.3-2.8-3.2
		l23.1-86c0.9-2.8,1.8-3.8,4.9-4H81c2.2,0,3.7,0.1,2.9,2.9l-2.4,9c-0.8,3-2.2,3.4-4.6,3.4H50l-6,22.5h22.3c2,0,3.4,0.1,2.5,2.9
		l-2.4,9c-0.7,2.8-1.9,3-4.2,3H40"/>
	<path class="st0" d="M125.7,85.7c-1.5,5.4-2.5,9-8.1,12.4c-4.6,2.8-14.1,5.7-25.7,5.7c-23.5,0-25.9-9.9-22.6-21.9l12.3-45.7
		c0.6-2.4,2.1-2.5,3.6-2.5h14.9c1.7,0,3.3,0.1,2.6,2.8l-12,44.5c-0.9,3.3-2.2,8.8,5.6,8.8c7.1,0,8.5-4.7,9.4-7.9l12.2-45.3
		c0.5-2,1.2-2.9,3.4-2.9h15.4c1.7,0,3,0.3,2.3,2.6L125.7,85.7"/>
	<path class="st0" d="M150.2,99c-0.6,2.4-1.6,2.9-3.7,2.9h-15.2c-2.4,0-2.9-0.5-2.2-3l14.7-54.7c1.2-4.3,2.4-5.9,5.8-7.5
		c8.6-4,21.1-4.9,27.3-4.9c3.6,0,17.4,0,14.2,12.1c-1.3,4.7-5.2,8.6-10.1,8.6c-4.6,0-5.1-3-5.7-6.3c-0.5-2.2-1.1-4.1-4.3-4.1
		c-5.4,0-6.5,3.6-7.3,6.7L150.2,99"/>
	<path class="st0" d="M197,62.6c-2.4,8.3-2.8,14.3-2.8,14.3c-0.6,12,4.1,12.2,4.1,12.2c3.9,1,7.5-2.9,7.5-2.9
		c7.1-7.4,10.1-22.3,10.1-22.3c3.2-14-0.3-18.2-0.3-18.2c-4.2-5.1-9.9,0.5-9.9,0.5C199.8,52.2,197,62.6,197,62.6 M178.2,56.1
		c0,0,10.3,4,15.8-5.8c0,0,4-5.5,1-13.7c0,0,5.3-3.5,15.6-4.9c0,0,18.7-3.1,25.1,11.2c0,0,4.1,8,2.2,19.1c0,0-1.7,11.4-8.1,21.3
		c0,0-5.2,9.6-16.2,15.4c0,0-11.4,6.8-24.5,4.2c0,0-13.5-2.1-16.5-15.9c0,0-1.7-6.2,0.2-16.5C172.9,70.5,174.3,62.6,178.2,56.1z"/>
	<path class="st0" d="M360.9,33.3h17.2c0,0,2.5-0.2,1.4,2.6l-8.6,32.6l-7,26.2l-1.4,4.7c0,0-0.3,2.1-3.2,2.1h-16.6
		c0,0-2.3,0.4-1.5-2.5l6.8-25.2l4.7-17.6c0,0,7.1-0.2,10.4-7.4c0,0,2-2.9,1-9.9C364,39,362.7,35.1,360.9,33.3"/>
</g>
<g>
	<path class="st1" d="M263.9,118.8l-3.9,14.5h-4l5.9-21.9h7.3l-2.1,13.2l5.1-13.2h7.3l-5.9,21.9h-5l3.8-14.3l-5.7,14.3h-4.7
		L263.9,118.8z"/>
	<path class="st1" d="M292,111.4l-1,3.9h-4.3l-1.3,4.9h4.1l-1,3.9h-4.1l-1.4,5.2h4.4l-1,3.9h-9.4l5.9-21.9H292z"/>
	<path class="st1" d="M303.7,125.7l-2,7.5h-5l2-7.5c0.1-0.5-0.1-0.8-0.7-0.8h-1.3l-2.2,8.3h-5l5.9-21.9h7.5c3.1,0,4.3,1.3,3.6,4.1
		l-1.1,4.2c-0.5,1.9-1.5,2.8-3,3.2C303.7,123.3,304.1,124.1,303.7,125.7z M300.5,115.2h-1.2l-1.6,6.1h1.2c0.6,0,1-0.2,1.1-0.8
		l1.2-4.5C301.4,115.5,301.2,115.2,300.5,115.2z"/>
	<path class="st1" d="M314.3,133.3l4.8-17.9h-3.1l1-3.9h11.1l-1,3.9h-3.1l-4.8,17.9H314.3z"/>
	<path class="st1" d="M330.5,133.3h-5l5.9-21.9h5L330.5,133.3z"/>
	<path class="st1" d="M344.7,111.4l-4.8,18h3.6l-1,3.9h-8.7l5.9-21.9H344.7z"/>
	<path class="st1" d="M360.1,133.4h-3.2c-3.1,0-4.3-1.3-3.6-4.1l3.8-14.1c0.7-2.7,2.6-4.1,5.8-4.1h3.2c3.1,0,4.3,1.3,3.6,4.1
		l-3.8,14.1C365.1,132.1,363.2,133.4,360.1,133.4z M363.8,115H363c-0.6,0-1,0.2-1.1,0.8l-3.5,13.2c-0.1,0.5,0.1,0.8,0.7,0.8h0.7
		c0.6,0,1-0.2,1.1-0.8l3.5-13.2C364.6,115.2,364.4,115,363.8,115z"/>
	<path class="st1" d="M370.9,133.3l2.5-21.9h5.1l-2.4,15.5l6-15.5h4.7l-9.2,21.9H370.9z"/>
	<path class="st1" d="M399,111.4l-1,3.9h-4.3l-1.3,4.9h4.1l-1,3.9h-4.1l-1.4,5.2h4.4l-1,3.9h-9.4l5.9-21.9H399z"/>
	<path class="st1" d="M410.7,125.7l-2,7.5h-5l2-7.5c0.1-0.5-0.1-0.8-0.7-0.8h-1.3l-2.2,8.3h-5l5.9-21.9h7.5c3.1,0,4.3,1.3,3.6,4.1
		l-1.1,4.2c-0.5,1.9-1.5,2.8-3,3.2C410.7,123.3,411.1,124.1,410.7,125.7z M407.5,115.2h-1.2l-1.6,6.1h1.2c0.6,0,1-0.2,1.1-0.8
		l1.2-4.5C408.3,115.5,408.1,115.2,407.5,115.2z"/>
	<path class="st1" d="M426.1,125.4l-1.1,4c-0.7,2.7-2.6,4.1-5.8,4.1h-2.8c-3.1,0-4.3-1.3-3.6-4.1l1.2-4.7h4.9l-1.1,4.2
		c-0.1,0.5,0.1,0.8,0.7,0.8h0.5c0.6,0,1-0.2,1.1-0.8l0.7-2.6c0.2-0.7,0-1-0.5-1.4l-3.6-2.8c-1.3-1-1.5-1.9-1.1-3.4l0.9-3.5
		c0.7-2.7,2.6-4.1,5.8-4.1h2.7c3.1,0,4.3,1.3,3.6,4.1l-1.1,4h-4.9l1-3.6c0.1-0.5-0.1-0.8-0.7-0.8h-0.4c-0.6,0-1,0.2-1.1,0.8
		l-0.6,2.1c-0.2,0.7,0,1,0.5,1.4l3.6,2.8C426.3,122.9,426.5,123.7,426.1,125.4z"/>
</g>
</svg>
